<mxfile host="app.diagrams.net" agent="Mozilla/5.0 (Windows NT 10.0; Win64; x64) AppleWebKit/537.36 (KHTML, like Gecko) Chrome/130.0.0.0 Safari/537.36" version="27.1.4">
  <diagram name="PÃ¡gina-1" id="Hfd2w8h4ahoQ420Il3-K">
    <mxGraphModel dx="2253" dy="743" grid="1" gridSize="10" guides="1" tooltips="1" connect="1" arrows="1" fold="1" page="1" pageScale="1" pageWidth="827" pageHeight="1169" math="0" shadow="0">
      <root>
        <mxCell id="0" />
        <mxCell id="1" parent="0" />
        <mxCell id="FNUw9Zn6n1CVeSU_xzTp-7" value="&lt;font style=&quot;vertical-align: inherit;&quot;&gt;&lt;font style=&quot;vertical-align: inherit;&quot;&gt;USUARIO&lt;/font&gt;&lt;/font&gt;" style="rounded=0;whiteSpace=wrap;html=1;" parent="1" vertex="1">
          <mxGeometry x="180" y="460" width="120" height="60" as="geometry" />
        </mxCell>
        <mxCell id="FNUw9Zn6n1CVeSU_xzTp-31" value="Solicita" style="rhombus;whiteSpace=wrap;html=1;rounded=0;" parent="1" vertex="1">
          <mxGeometry x="199" y="590" width="80" height="80" as="geometry" />
        </mxCell>
        <mxCell id="FNUw9Zn6n1CVeSU_xzTp-33" value="" style="endArrow=none;html=1;rounded=0;exitX=0.5;exitY=0;exitDx=0;exitDy=0;entryX=0.624;entryY=0.886;entryDx=0;entryDy=0;entryPerimeter=0;" parent="1" source="FNUw9Zn6n1CVeSU_xzTp-7" target="FNUw9Zn6n1CVeSU_xzTp-40" edge="1">
          <mxGeometry width="50" height="50" relative="1" as="geometry">
            <mxPoint x="240" y="440" as="sourcePoint" />
            <mxPoint x="160" y="400" as="targetPoint" />
          </mxGeometry>
        </mxCell>
        <mxCell id="FNUw9Zn6n1CVeSU_xzTp-34" value="" style="endArrow=none;html=1;rounded=0;exitX=0.5;exitY=0;exitDx=0;exitDy=0;entryX=0.508;entryY=0.905;entryDx=0;entryDy=0;entryPerimeter=0;" parent="1" source="FNUw9Zn6n1CVeSU_xzTp-7" target="FNUw9Zn6n1CVeSU_xzTp-41" edge="1">
          <mxGeometry width="50" height="50" relative="1" as="geometry">
            <mxPoint x="330" y="390" as="sourcePoint" />
            <mxPoint x="240" y="400" as="targetPoint" />
          </mxGeometry>
        </mxCell>
        <mxCell id="FNUw9Zn6n1CVeSU_xzTp-36" value="" style="endArrow=none;html=1;rounded=0;entryX=0.5;entryY=0;entryDx=0;entryDy=0;exitX=0.505;exitY=0.924;exitDx=0;exitDy=0;exitPerimeter=0;" parent="1" source="FNUw9Zn6n1CVeSU_xzTp-38" target="FNUw9Zn6n1CVeSU_xzTp-7" edge="1">
          <mxGeometry width="50" height="50" relative="1" as="geometry">
            <mxPoint x="80" y="400" as="sourcePoint" />
            <mxPoint x="360" y="500" as="targetPoint" />
          </mxGeometry>
        </mxCell>
        <mxCell id="FNUw9Zn6n1CVeSU_xzTp-37" value="" style="endArrow=none;html=1;rounded=0;exitX=0.5;exitY=0;exitDx=0;exitDy=0;entryX=0.427;entryY=1;entryDx=0;entryDy=0;entryPerimeter=0;" parent="1" source="FNUw9Zn6n1CVeSU_xzTp-7" target="FNUw9Zn6n1CVeSU_xzTp-44" edge="1">
          <mxGeometry width="50" height="50" relative="1" as="geometry">
            <mxPoint x="350" y="460" as="sourcePoint" />
            <mxPoint x="400" y="400" as="targetPoint" />
          </mxGeometry>
        </mxCell>
        <mxCell id="FNUw9Zn6n1CVeSU_xzTp-38" value="NombreDocumento(UID)" style="text;html=1;align=center;verticalAlign=middle;resizable=0;points=[];autosize=1;fontStyle=5;rounded=0;" parent="1" vertex="1">
          <mxGeometry x="-151" y="380" width="160" height="30" as="geometry" />
        </mxCell>
        <mxCell id="FNUw9Zn6n1CVeSU_xzTp-40" value="Nombre" style="text;html=1;align=center;verticalAlign=middle;resizable=0;points=[];autosize=1;rounded=0;" parent="1" vertex="1">
          <mxGeometry x="29" y="380" width="70" height="30" as="geometry" />
        </mxCell>
        <mxCell id="FNUw9Zn6n1CVeSU_xzTp-41" value="Apellidos" style="text;html=1;align=center;verticalAlign=middle;resizable=0;points=[];autosize=1;rounded=0;" parent="1" vertex="1">
          <mxGeometry x="124" y="380" width="70" height="30" as="geometry" />
        </mxCell>
        <mxCell id="FNUw9Zn6n1CVeSU_xzTp-43" value="" style="endArrow=none;html=1;rounded=0;exitX=0.5;exitY=0;exitDx=0;exitDy=0;" parent="1" source="FNUw9Zn6n1CVeSU_xzTp-7" target="FNUw9Zn6n1CVeSU_xzTp-42" edge="1">
          <mxGeometry width="50" height="50" relative="1" as="geometry">
            <mxPoint x="240" y="460" as="sourcePoint" />
            <mxPoint x="320" y="400" as="targetPoint" />
          </mxGeometry>
        </mxCell>
        <mxCell id="FNUw9Zn6n1CVeSU_xzTp-42" value="F.Nacimiento" style="text;html=1;align=center;verticalAlign=middle;resizable=0;points=[];autosize=1;rounded=0;" parent="1" vertex="1">
          <mxGeometry x="194" y="380" width="90" height="30" as="geometry" />
        </mxCell>
        <mxCell id="FNUw9Zn6n1CVeSU_xzTp-44" value="Telefono" style="text;html=1;align=center;verticalAlign=middle;resizable=0;points=[];autosize=1;rounded=0;" parent="1" vertex="1">
          <mxGeometry x="284" y="380" width="70" height="30" as="geometry" />
        </mxCell>
        <mxCell id="FNUw9Zn6n1CVeSU_xzTp-47" value="Fecha" style="text;html=1;align=center;verticalAlign=middle;resizable=0;points=[];autosize=1;rounded=0;" parent="1" vertex="1">
          <mxGeometry x="129" y="555" width="60" height="30" as="geometry" />
        </mxCell>
        <mxCell id="FNUw9Zn6n1CVeSU_xzTp-48" value="Hora" style="text;html=1;align=center;verticalAlign=middle;resizable=0;points=[];autosize=1;rounded=0;" parent="1" vertex="1">
          <mxGeometry x="134" y="585" width="50" height="30" as="geometry" />
        </mxCell>
        <mxCell id="FNUw9Zn6n1CVeSU_xzTp-52" value="" style="endArrow=none;html=1;rounded=0;exitX=0;exitY=0;exitDx=0;exitDy=0;entryX=0.954;entryY=0.624;entryDx=0;entryDy=0;entryPerimeter=0;" parent="1" source="FNUw9Zn6n1CVeSU_xzTp-31" target="FNUw9Zn6n1CVeSU_xzTp-48" edge="1">
          <mxGeometry width="50" height="50" relative="1" as="geometry">
            <mxPoint x="310" y="690" as="sourcePoint" />
            <mxPoint x="360" y="640" as="targetPoint" />
          </mxGeometry>
        </mxCell>
        <mxCell id="FNUw9Zn6n1CVeSU_xzTp-53" value="" style="endArrow=none;html=1;rounded=0;exitX=1.031;exitY=0.61;exitDx=0;exitDy=0;exitPerimeter=0;entryX=0;entryY=0;entryDx=0;entryDy=0;" parent="1" source="FNUw9Zn6n1CVeSU_xzTp-47" target="FNUw9Zn6n1CVeSU_xzTp-31" edge="1">
          <mxGeometry width="50" height="50" relative="1" as="geometry">
            <mxPoint x="310" y="690" as="sourcePoint" />
            <mxPoint x="360" y="640" as="targetPoint" />
          </mxGeometry>
        </mxCell>
        <mxCell id="FNUw9Zn6n1CVeSU_xzTp-54" value="" style="endArrow=classic;html=1;rounded=0;entryX=0.5;entryY=1;entryDx=0;entryDy=0;exitX=0.5;exitY=0;exitDx=0;exitDy=0;" parent="1" source="FNUw9Zn6n1CVeSU_xzTp-31" target="FNUw9Zn6n1CVeSU_xzTp-7" edge="1">
          <mxGeometry width="50" height="50" relative="1" as="geometry">
            <mxPoint x="-40" y="870" as="sourcePoint" />
            <mxPoint x="10" y="820" as="targetPoint" />
          </mxGeometry>
        </mxCell>
        <mxCell id="FNUw9Zn6n1CVeSU_xzTp-56" value="" style="endArrow=classic;html=1;rounded=0;exitX=0.5;exitY=1;exitDx=0;exitDy=0;entryX=0.5;entryY=0;entryDx=0;entryDy=0;" parent="1" source="FNUw9Zn6n1CVeSU_xzTp-31" target="FNUw9Zn6n1CVeSU_xzTp-57" edge="1">
          <mxGeometry width="50" height="50" relative="1" as="geometry">
            <mxPoint x="310" y="690" as="sourcePoint" />
            <mxPoint x="100" y="720" as="targetPoint" />
          </mxGeometry>
        </mxCell>
        <mxCell id="FNUw9Zn6n1CVeSU_xzTp-57" value="&lt;font style=&quot;vertical-align: inherit;&quot;&gt;&lt;font style=&quot;vertical-align: inherit;&quot;&gt;reservas&lt;/font&gt;&lt;/font&gt;" style="rounded=0;whiteSpace=wrap;html=1;" parent="1" vertex="1">
          <mxGeometry x="179" y="760" width="120" height="60" as="geometry" />
        </mxCell>
        <mxCell id="FNUw9Zn6n1CVeSU_xzTp-58" value="&lt;font style=&quot;vertical-align: inherit;&quot;&gt;&lt;font style=&quot;vertical-align: inherit;&quot;&gt;numeroPista&lt;/font&gt;&lt;/font&gt;" style="text;html=1;align=center;verticalAlign=middle;resizable=0;points=[];autosize=1;fontStyle=0;rounded=0;" parent="1" vertex="1">
          <mxGeometry x="55" y="848" width="90" height="30" as="geometry" />
        </mxCell>
        <mxCell id="FNUw9Zn6n1CVeSU_xzTp-60" value="" style="endArrow=none;html=1;rounded=0;entryX=0.5;entryY=1;entryDx=0;entryDy=0;exitX=0.504;exitY=0.105;exitDx=0;exitDy=0;exitPerimeter=0;" parent="1" source="FNUw9Zn6n1CVeSU_xzTp-58" target="FNUw9Zn6n1CVeSU_xzTp-57" edge="1">
          <mxGeometry width="50" height="50" relative="1" as="geometry">
            <mxPoint x="-20" y="980" as="sourcePoint" />
            <mxPoint x="30" y="930" as="targetPoint" />
          </mxGeometry>
        </mxCell>
        <mxCell id="FNUw9Zn6n1CVeSU_xzTp-69" value="" style="endArrow=none;html=1;rounded=0;entryX=0;entryY=0.5;entryDx=0;entryDy=0;exitX=1;exitY=0.5;exitDx=0;exitDy=0;" parent="1" source="FNUw9Zn6n1CVeSU_xzTp-31" target="73Ku9VqbGi4arKU_VAXJ-1" edge="1">
          <mxGeometry width="50" height="50" relative="1" as="geometry">
            <mxPoint x="550" y="650" as="sourcePoint" />
            <mxPoint x="469.1399999999999" y="654.5799999999999" as="targetPoint" />
          </mxGeometry>
        </mxCell>
        <mxCell id="FNUw9Zn6n1CVeSU_xzTp-71" value="tipo" style="text;html=1;align=center;verticalAlign=middle;resizable=0;points=[];autosize=1;rounded=0;" parent="1" vertex="1">
          <mxGeometry x="154" y="848" width="40" height="30" as="geometry" />
        </mxCell>
        <mxCell id="FNUw9Zn6n1CVeSU_xzTp-74" value="" style="endArrow=none;html=1;rounded=0;exitX=0.466;exitY=0.029;exitDx=0;exitDy=0;exitPerimeter=0;entryX=0.5;entryY=1;entryDx=0;entryDy=0;" parent="1" source="FNUw9Zn6n1CVeSU_xzTp-71" target="FNUw9Zn6n1CVeSU_xzTp-57" edge="1">
          <mxGeometry width="50" height="50" relative="1" as="geometry">
            <mxPoint x="310" y="690" as="sourcePoint" />
            <mxPoint x="309" y="840" as="targetPoint" />
          </mxGeometry>
        </mxCell>
        <mxCell id="OZJLUpKvxkMbzZHWttrx-1" value="Rol" style="text;html=1;align=center;verticalAlign=middle;resizable=0;points=[];autosize=1;strokeColor=none;fillColor=none;" parent="1" vertex="1">
          <mxGeometry x="369" y="380" width="40" height="30" as="geometry" />
        </mxCell>
        <mxCell id="OZJLUpKvxkMbzZHWttrx-2" value="" style="endArrow=none;html=1;rounded=0;entryX=0.551;entryY=1.015;entryDx=0;entryDy=0;entryPerimeter=0;exitX=0.5;exitY=0;exitDx=0;exitDy=0;" parent="1" source="FNUw9Zn6n1CVeSU_xzTp-7" target="OZJLUpKvxkMbzZHWttrx-1" edge="1">
          <mxGeometry width="50" height="50" relative="1" as="geometry">
            <mxPoint x="390" y="490" as="sourcePoint" />
            <mxPoint x="440" y="440" as="targetPoint" />
          </mxGeometry>
        </mxCell>
        <mxCell id="73Ku9VqbGi4arKU_VAXJ-1" value="TenisPadelPrecio" style="rounded=0;whiteSpace=wrap;html=1;" parent="1" vertex="1">
          <mxGeometry x="675" y="750" width="120" height="60" as="geometry" />
        </mxCell>
        <mxCell id="73Ku9VqbGi4arKU_VAXJ-3" value="&lt;div&gt;padelInvitado&lt;/div&gt;" style="text;html=1;align=center;verticalAlign=middle;resizable=0;points=[];autosize=1;strokeColor=none;fillColor=none;" parent="1" vertex="1">
          <mxGeometry x="470" y="910" width="90" height="30" as="geometry" />
        </mxCell>
        <mxCell id="73Ku9VqbGi4arKU_VAXJ-4" value="tenisInvitado" style="text;html=1;align=center;verticalAlign=middle;resizable=0;points=[];autosize=1;strokeColor=none;fillColor=none;" parent="1" vertex="1">
          <mxGeometry x="650" y="910" width="90" height="30" as="geometry" />
        </mxCell>
        <mxCell id="73Ku9VqbGi4arKU_VAXJ-5" value="&lt;div&gt;padelSocio&lt;/div&gt;" style="text;html=1;align=center;verticalAlign=middle;resizable=0;points=[];autosize=1;strokeColor=none;fillColor=none;" parent="1" vertex="1">
          <mxGeometry x="565" y="910" width="80" height="30" as="geometry" />
        </mxCell>
        <mxCell id="73Ku9VqbGi4arKU_VAXJ-8" value="" style="endArrow=none;html=1;rounded=0;entryX=0.5;entryY=1;entryDx=0;entryDy=0;exitX=0.45;exitY=-0.008;exitDx=0;exitDy=0;exitPerimeter=0;" parent="1" source="73Ku9VqbGi4arKU_VAXJ-3" target="73Ku9VqbGi4arKU_VAXJ-1" edge="1">
          <mxGeometry width="50" height="50" relative="1" as="geometry">
            <mxPoint x="460" y="750" as="sourcePoint" />
            <mxPoint x="510" y="700" as="targetPoint" />
          </mxGeometry>
        </mxCell>
        <mxCell id="73Ku9VqbGi4arKU_VAXJ-9" value="" style="endArrow=none;html=1;rounded=0;entryX=0.5;entryY=1;entryDx=0;entryDy=0;exitX=0.498;exitY=0.073;exitDx=0;exitDy=0;exitPerimeter=0;" parent="1" source="73Ku9VqbGi4arKU_VAXJ-5" target="73Ku9VqbGi4arKU_VAXJ-1" edge="1">
          <mxGeometry width="50" height="50" relative="1" as="geometry">
            <mxPoint x="460" y="750" as="sourcePoint" />
            <mxPoint x="510" y="700" as="targetPoint" />
          </mxGeometry>
        </mxCell>
        <mxCell id="73Ku9VqbGi4arKU_VAXJ-10" value="" style="endArrow=none;html=1;rounded=0;entryX=0.491;entryY=-0.029;entryDx=0;entryDy=0;entryPerimeter=0;exitX=0.5;exitY=1;exitDx=0;exitDy=0;" parent="1" source="73Ku9VqbGi4arKU_VAXJ-1" target="73Ku9VqbGi4arKU_VAXJ-4" edge="1">
          <mxGeometry width="50" height="50" relative="1" as="geometry">
            <mxPoint x="460" y="750" as="sourcePoint" />
            <mxPoint x="510" y="700" as="targetPoint" />
          </mxGeometry>
        </mxCell>
        <mxCell id="73Ku9VqbGi4arKU_VAXJ-11" value="BolosPrecio" style="rounded=0;whiteSpace=wrap;html=1;" parent="1" vertex="1">
          <mxGeometry x="-200" y="750" width="120" height="60" as="geometry" />
        </mxCell>
        <mxCell id="73Ku9VqbGi4arKU_VAXJ-12" value="" style="endArrow=none;html=1;rounded=0;exitX=0.5;exitY=0;exitDx=0;exitDy=0;entryX=0;entryY=0.5;entryDx=0;entryDy=0;" parent="1" source="73Ku9VqbGi4arKU_VAXJ-11" target="FNUw9Zn6n1CVeSU_xzTp-31" edge="1">
          <mxGeometry width="50" height="50" relative="1" as="geometry">
            <mxPoint x="100" y="730" as="sourcePoint" />
            <mxPoint x="-40" y="650" as="targetPoint" />
          </mxGeometry>
        </mxCell>
        <mxCell id="73Ku9VqbGi4arKU_VAXJ-14" value="precioInvitado&lt;div&gt;&lt;br&gt;&lt;/div&gt;" style="text;html=1;align=center;verticalAlign=middle;resizable=0;points=[];autosize=1;strokeColor=none;fillColor=none;" parent="1" vertex="1">
          <mxGeometry x="-140" y="848" width="100" height="40" as="geometry" />
        </mxCell>
        <mxCell id="73Ku9VqbGi4arKU_VAXJ-15" value="precioSocio&lt;div&gt;&lt;br&gt;&lt;/div&gt;" style="text;html=1;align=center;verticalAlign=middle;resizable=0;points=[];autosize=1;strokeColor=none;fillColor=none;" parent="1" vertex="1">
          <mxGeometry x="-250" y="848" width="90" height="40" as="geometry" />
        </mxCell>
        <mxCell id="73Ku9VqbGi4arKU_VAXJ-16" value="" style="endArrow=none;html=1;rounded=0;exitX=0.5;exitY=1;exitDx=0;exitDy=0;entryX=0.526;entryY=0.068;entryDx=0;entryDy=0;entryPerimeter=0;" parent="1" source="73Ku9VqbGi4arKU_VAXJ-11" target="73Ku9VqbGi4arKU_VAXJ-14" edge="1">
          <mxGeometry width="50" height="50" relative="1" as="geometry">
            <mxPoint x="130" y="740" as="sourcePoint" />
            <mxPoint x="180" y="690" as="targetPoint" />
          </mxGeometry>
        </mxCell>
        <mxCell id="73Ku9VqbGi4arKU_VAXJ-17" value="" style="endArrow=none;html=1;rounded=0;exitX=0.5;exitY=1;exitDx=0;exitDy=0;entryX=0.552;entryY=0.009;entryDx=0;entryDy=0;entryPerimeter=0;" parent="1" source="73Ku9VqbGi4arKU_VAXJ-11" target="73Ku9VqbGi4arKU_VAXJ-15" edge="1">
          <mxGeometry width="50" height="50" relative="1" as="geometry">
            <mxPoint x="130" y="740" as="sourcePoint" />
            <mxPoint x="180" y="690" as="targetPoint" />
          </mxGeometry>
        </mxCell>
        <mxCell id="73Ku9VqbGi4arKU_VAXJ-18" value="" style="endArrow=none;html=1;rounded=0;entryX=0.5;entryY=1;entryDx=0;entryDy=0;exitX=0.525;exitY=0.033;exitDx=0;exitDy=0;exitPerimeter=0;" parent="1" source="73Ku9VqbGi4arKU_VAXJ-19" target="73Ku9VqbGi4arKU_VAXJ-1" edge="1">
          <mxGeometry width="50" height="50" relative="1" as="geometry">
            <mxPoint x="930" y="840" as="sourcePoint" />
            <mxPoint x="430" y="790" as="targetPoint" />
          </mxGeometry>
        </mxCell>
        <mxCell id="73Ku9VqbGi4arKU_VAXJ-19" value="tenisSocio" style="text;html=1;align=center;verticalAlign=middle;resizable=0;points=[];autosize=1;strokeColor=none;fillColor=none;" parent="1" vertex="1">
          <mxGeometry x="735" y="910" width="80" height="30" as="geometry" />
        </mxCell>
        <mxCell id="73Ku9VqbGi4arKU_VAXJ-20" value="tenisInvitadoTierra" style="text;html=1;align=center;verticalAlign=middle;resizable=0;points=[];autosize=1;strokeColor=none;fillColor=none;" parent="1" vertex="1">
          <mxGeometry x="805" y="910" width="120" height="30" as="geometry" />
        </mxCell>
        <mxCell id="73Ku9VqbGi4arKU_VAXJ-21" value="tenisSocioTierra" style="text;html=1;align=center;verticalAlign=middle;resizable=0;points=[];autosize=1;strokeColor=none;fillColor=none;" parent="1" vertex="1">
          <mxGeometry x="925" y="910" width="110" height="30" as="geometry" />
        </mxCell>
        <mxCell id="73Ku9VqbGi4arKU_VAXJ-22" value="" style="endArrow=none;html=1;rounded=0;exitX=0.5;exitY=0;exitDx=0;exitDy=0;exitPerimeter=0;entryX=0.5;entryY=1;entryDx=0;entryDy=0;" parent="1" source="73Ku9VqbGi4arKU_VAXJ-20" target="73Ku9VqbGi4arKU_VAXJ-1" edge="1">
          <mxGeometry width="50" height="50" relative="1" as="geometry">
            <mxPoint x="380" y="840" as="sourcePoint" />
            <mxPoint x="430" y="790" as="targetPoint" />
          </mxGeometry>
        </mxCell>
        <mxCell id="73Ku9VqbGi4arKU_VAXJ-23" value="" style="endArrow=none;html=1;rounded=0;entryX=0.518;entryY=-0.033;entryDx=0;entryDy=0;entryPerimeter=0;exitX=0.5;exitY=1;exitDx=0;exitDy=0;" parent="1" source="73Ku9VqbGi4arKU_VAXJ-1" target="73Ku9VqbGi4arKU_VAXJ-21" edge="1">
          <mxGeometry width="50" height="50" relative="1" as="geometry">
            <mxPoint x="980" y="770" as="sourcePoint" />
            <mxPoint x="430" y="790" as="targetPoint" />
          </mxGeometry>
        </mxCell>
        <mxCell id="eOvpLGM8lE22hyvYO9e5-3" value="&lt;font style=&quot;vertical-align: inherit;&quot;&gt;&lt;font style=&quot;vertical-align: inherit;&quot;&gt;precio&lt;/font&gt;&lt;/font&gt;" style="text;html=1;align=center;verticalAlign=middle;resizable=0;points=[];autosize=1;strokeColor=none;fillColor=none;" vertex="1" parent="1">
          <mxGeometry x="199" y="920" width="60" height="30" as="geometry" />
        </mxCell>
        <mxCell id="eOvpLGM8lE22hyvYO9e5-4" value="&lt;font style=&quot;vertical-align: inherit;&quot;&gt;&lt;font style=&quot;vertical-align: inherit;&quot;&gt;bloqueada&lt;/font&gt;&lt;/font&gt;" style="text;html=1;align=center;verticalAlign=middle;resizable=0;points=[];autosize=1;strokeColor=none;fillColor=none;" vertex="1" parent="1">
          <mxGeometry x="300" y="928" width="80" height="30" as="geometry" />
        </mxCell>
      </root>
    </mxGraphModel>
  </diagram>
</mxfile>
